<svg xmlns="http://www.w3.org/2000/svg" aria-hidden="true" style="width:0;height:0;position:absolute;overflow:hidden"><defs><symbol id="logo" viewBox="0 0 32 32"><path d="M11.368 6.494v6.649h-.779L6.966 7.922h-.065v5.221h-.805V6.494h.779l3.636 5.234h.065V6.494h.792zm2.417 0v6.649h-.805V6.494h.805zm6.965 2.077h-.805a1.674 1.674 0 0 0-.679-1.052c-.167-.121-.352-.212-.555-.273s-.416-.091-.636-.091c-.403 0-.767.102-1.094.305-.325.203-.583.503-.776.899-.19.396-.286.882-.286 1.458s.095 1.062.286 1.458c.193.396.451.696.776.899.327.203.692.305 1.094.305.221 0 .433-.03.636-.091s.389-.15.555-.27a1.714 1.714 0 0 0 .679-1.055h.805c-.061.34-.171.644-.331.912a2.492 2.492 0 0 1-1.399 1.11 2.998 2.998 0 0 1-.945.146c-.567 0-1.071-.139-1.513-.416s-.789-.671-1.042-1.182c-.253-.511-.38-1.117-.38-1.818s.127-1.307.38-1.818c.253-.511.601-.905 1.042-1.182s.946-.416 1.513-.416c.335 0 .65.049.945.146.296.097.564.24.802.429.238.186.437.413.597.682.16.266.271.57.331.912zm1.301 4.572V6.494h4.013v.714h-3.208v2.247h3v.714h-3v2.26h3.26v.714h-4.065zM5.707 17.351l1.974 5.597h.078l1.974-5.597h.844L8.135 24h-.831l-2.442-6.649h.844zm6.711 0V24h-.805v-6.649h.805zM14.033 24v-6.649h4.013v.714h-3.208v2.247h3v.714h-3v2.26h3.26V24h-4.065zm6.672 0-1.818-6.649h.818l1.39 5.416h.065l1.416-5.416h.909l1.416 5.416h.065l1.39-5.416h.818L25.356 24h-.831l-1.468-5.299h-.052L21.537 24h-.831z"/></symbol><symbol id="icon1" viewBox="0 0 32 32"><path stroke-width="2" d="M10.667 9.333h10.667m-10.667 0H5.334A2.668 2.668 0 0 0 2.667 12v13.333A2.668 2.668 0 0 0 5.334 28h21.333a2.668 2.668 0 0 0 2.667-2.667V12a2.668 2.668 0 0 0-2.667-2.667h-16zm0 0V4.8a.8.8 0 0 1 .8-.8h9.067a.8.8 0 0 1 .8.8v4.533H10.667z"/></symbol><symbol id="icon2" viewBox="0 0 32 32"><path stroke-linecap="round" stroke-linejoin="round" stroke-width="2" d="M26.667 26.667H5.334V5.334"/><path stroke-linecap="round" stroke-linejoin="round" stroke-width="2" d="M5.333 22 16 12l4 4 6-6"/></symbol><symbol id="icon3" viewBox="0 0 32 32"><path stroke-linecap="round" stroke-linejoin="round" stroke-width="2" d="M25.333 17.333v8.533a.8.8 0 0 1-.8.8H7.466a.8.8 0 0 1-.8-.8v-8.533M4 12.667l12-7.333 12 7.333H4z"/></symbol><symbol id="icon4" viewBox="0 0 32 32"><path stroke-linecap="round" stroke-linejoin="round" stroke-width="2" d="M20.667 30h-9.333m9.333 0V16.933a.934.934 0 0 0-.933-.933h-7.467a.932.932 0 0 0-.933.933V30m9.333 0h8.4a.934.934 0 0 0 .933-.933v-3.578a.932.932 0 0 0-.933-.933H21.6a.934.934 0 0 0-.933.933V30zm-9.334 0v-7.623a.932.932 0 0 0-.933-.933H2.933a.932.932 0 0 0-.933.933v6.689a.932.932 0 0 0 .933.933h8.4zm2.81-24.714 1.414-2.998A.48.48 0 0 1 16 2a.483.483 0 0 1 .443.288l1.416 2.998 3.161.484c.406.062.568.585.274.884l-2.287 2.333.54 3.295c.068.423-.355.747-.719.546L16 11.272l-2.828 1.556c-.362.199-.787-.123-.719-.546l.54-3.295-2.287-2.333c-.296-.299-.132-.821.272-.884l3.164-.484z"/></symbol><symbol id="map" viewBox="0 0 32 32"><path stroke-linecap="round" stroke-linejoin="round" stroke-width="1.333" d="M16 3a9.88 9.88 0 0 0-9.88 9.88v.72c.4 5.413 4.893 9.767 9.88 15.4 5.207-5.88 9.88-10.333 9.88-16.12A9.88 9.88 0 0 0 16 3zm0 5.133a4.763 4.763 0 0 1 4.392 2.936 4.749 4.749 0 0 1-1.034 5.181 4.758 4.758 0 0 1-7.314-.728A4.753 4.753 0 0 1 16 8.132z"/></symbol><symbol id="email" viewBox="0 0 32 32"><path stroke-linecap="round" stroke-linejoin="round" d="M22.861 20.276c.267-.222.523-.456.768-.703M21.91 12a5.903 5.903 0 1 0-11.806.01A5.903 5.903 0 0 0 21.91 12z"/><path stroke-linecap="round" stroke-linejoin="round" d="M26.75 12a10.746 10.746 0 0 0-8.792-10.588A10.752 10.752 0 0 0 6.9 17.707l-.667 4.06 4.06-.667a10.72 10.72 0 0 0 9.89.806"/><path stroke-linecap="round" stroke-linejoin="round" d="M21.573 13.968c-.722 1.761.454 2.709 1.465 2.939 1.233.28 3.712-1.009 3.712-4.907"/></symbol><symbol id="phone" viewBox="0 0 32 32"><path stroke-linecap="round" stroke-linejoin="round" stroke-width="1.333" d="M27.147 20.187a41.182 41.182 0 0 1-4.2-.74 2.073 2.073 0 0 0-2 .387c-.353.36-1.373 1.367-2.433 2.407a19.126 19.126 0 0 1-8.733-8.74c1.033-1.06 2-2.073 2.393-2.427a2.079 2.079 0 0 0 .387-2 41.364 41.364 0 0 1-.74-4.207 1.321 1.321 0 0 0-.996-1.155 1.331 1.331 0 0 0-.537-.025h-5.68a1.001 1.001 0 0 0-.907.913c-.367 5.127 2.493 10.613 3.073 11.667v.04l.08.153a23.624 23.624 0 0 0 8.667 8.667l.293.167c1.333.707 6.633 3.373 11.587 3.007a.999.999 0 0 0 .927-.907v-5.673a1.317 1.317 0 0 0-.667-1.371 1.346 1.346 0 0 0-.513-.162z"/></symbol><symbol id="youtube" viewBox="0 0 32 32"><path d="M29.384 5.513C28.518 4.863 26.105 4 15.992 4 5.155 4 3.547 4.991 3.031 5.316.285 7.036.024 14.648 0 16.192c.033 2.039.349 8.822 3.029 10.5.515.323 2.114 1.309 12.963 1.309 10.119 0 12.53-.859 13.392-1.506 2.341-1.755 2.61-7.799 2.616-10.329-.006-2.035-.211-8.846-2.616-10.652zm-1.167 19.291c-.348.261-2.347 1.114-12.226 1.114-9.55 0-11.554-.773-11.933-1.011-.964-.603-1.981-3.803-2.061-8.721.079-4.907 1.11-8.49 2.063-9.085.38-.239 2.391-1.018 11.931-1.018 9.871 0 11.875.858 12.225 1.12.856.642 1.772 4.024 1.785 8.969-.013 5.022-.936 7.995-1.785 8.632zm-5.711-9.623-8.988-5.749a.967.967 0 0 0-1.007-.015c-.154.091-.283.222-.372.382s-.136.341-.137.525v11.5c0 .276.105.541.293.736s.441.305.706.305c.182 0 .36-.052.516-.149l8.989-5.751c.3-.189.483-.527.483-.892s-.183-.704-.482-.892zm-8.505 4.798v-7.812l6.056 3.906-6.056 3.907z"/></symbol><symbol id="instagram" viewBox="0 0 32 32"><path d="M9.404.096C11.11.017 11.654 0 16 0s4.89.019 6.595.096 2.868.349 3.887.743a7.88 7.88 0 0 1 2.833 1.847 7.803 7.803 0 0 1 1.844 2.832c.396 1.018.666 2.182.745 3.884.079 1.709.096 2.253.096 6.598 0 4.346-.019 4.89-.096 6.596-.077 1.702-.349 2.865-.745 3.884a7.85 7.85 0 0 1-1.844 2.835 7.832 7.832 0 0 1-2.833 1.844c-1.018.396-2.182.666-3.884.745C20.89 31.983 20.346 32 16 32s-4.89-.019-6.596-.096c-1.702-.077-2.865-.349-3.884-.745a7.85 7.85 0 0 1-2.835-1.844 7.846 7.846 0 0 1-1.846-2.833C.445 25.464.174 24.3.096 22.598.017 20.889 0 20.345 0 16c0-4.346.019-4.89.096-6.595s.349-2.868.743-3.887a7.854 7.854 0 0 1 1.847-2.833A7.843 7.843 0 0 1 5.518.839C6.536.445 7.7.174 9.402.096h.001zm13.061 2.88c-1.687-.077-2.193-.093-6.465-.093s-4.778.016-6.465.093c-1.561.071-2.407.332-2.972.551a4.972 4.972 0 0 0-1.84 1.196 4.966 4.966 0 0 0-1.196 1.84c-.22.564-.48 1.411-.551 2.972-.077 1.687-.093 2.193-.093 6.465s.016 4.778.093 6.465c.071 1.561.332 2.407.551 2.972a4.962 4.962 0 0 0 1.196 1.84c.516.531 1.146.94 1.84 1.196.564.22 1.411.48 2.972.551 1.687.077 2.192.093 6.465.093s4.778-.016 6.465-.093c1.561-.071 2.407-.332 2.972-.551a4.972 4.972 0 0 0 1.84-1.196 4.962 4.962 0 0 0 1.196-1.84c.22-.564.48-1.411.551-2.972.077-1.687.093-2.193.093-6.465s-.016-4.778-.093-6.465c-.071-1.561-.332-2.407-.551-2.972a4.972 4.972 0 0 0-1.196-1.84 4.974 4.974 0 0 0-1.84-1.196c-.564-.22-1.411-.48-2.972-.551zm-8.509 17.956a5.335 5.335 0 0 0 6.488-1.962 5.342 5.342 0 0 0-2.646-7.995 5.34 5.34 0 0 0-7.078 4.243 5.334 5.334 0 0 0 3.236 5.714zm-3.771-10.747A8.232 8.232 0 0 1 16 7.776a8.23 8.23 0 0 1 7.598 5.077 8.21 8.21 0 0 1 0 6.294 8.225 8.225 0 1 1-13.413-8.962zm15.863-1.184a1.958 1.958 0 0 0 .611-1.386 1.953 1.953 0 0 0-.569-1.403 1.948 1.948 0 0 0-1.403-.569 1.945 1.945 0 1 0 1.363 3.36z"/></symbol><symbol id="twitter" viewBox="0 0 32 32"><path stroke-linecap="round" stroke-linejoin="round" stroke-width="2.783" d="M32 4.185s-1.071 2.92-3.061 4.728c2.449 13.906-14.386 24.058-27.548 16.132 3.367.139 6.734-.834 9.183-2.781C2.922 20.178-.904 11.973 2.922 5.576c3.367 3.616 8.57 5.702 13.774 5.563-1.377-5.841 6.122-9.178 10.713-5.284C29.092 5.855 32 4.186 32 4.186z"/></symbol><symbol id="facebook" viewBox="0 0 32 32"><path d="M0 16.089C0 24.044 5.777 30.658 13.333 32V20.444h-4V16h4v-3.556c0-4 2.577-6.221 6.223-6.221 1.155 0 2.4.177 3.555.355v4.089h-2.044c-1.956 0-2.4.977-2.4 2.223v3.111h4.267l-.711 4.444h-3.556v11.556C26.223 30.66 32 24.046 32 16.09 32 7.241 24.8.001 16 .001S0 7.241 0 16.09z"/></symbol><symbol id="burger" viewBox="0 0 32 32"><path d="M4 5.333h24V8H4V5.333zm0 9.334h24v2.667H4v-2.667zM4 24h24v2.667H4V24z"/></symbol><symbol id="modal-close" viewBox="0 0 32 32"><path d="m15 13.232 6.187-6.187 1.768 1.767L16.767 15l6.188 6.187-1.768 1.768L15 16.767l-6.188 6.188-1.767-1.768L13.232 15 7.045 8.812l1.767-1.767L15 13.232Z"/></symbol><symbol id="modal-close-main"><path fill="#35322D" d="m16 14.115 6.6-6.6L24.485 9.4l-6.6 6.6 6.6 6.6-1.885 1.885-6.6-6.6-6.6 6.6L7.515 22.6l6.6-6.6-6.6-6.6L9.4 7.515l6.6 6.6Z"/><symbol id="send-mail" viewBox="0 0 22 22"><path d="M20.83 10.693 1.224.863a.375.375 0 0 0-.532.424l2.02 8.255a.37.37 0 0 0 .244.265l3.462 1.188-3.46 1.189a.367.367 0 0 0-.24.264L.691 20.715a.376.376 0 0 0 .532.424l19.606-9.773a.386.386 0 0 0 .169-.167.38.38 0 0 0-.17-.506ZM3.003 18.366l1.18-4.818 6.918-2.375a.188.188 0 0 0 0-.356L4.182 8.445l-1.174-4.8 14.719 7.38-14.724 7.341Z"/></symbol></symbol></defs></svg>