<!-- Generated by IcoMoon.io -->
<svg version="1.1" xmlns="http://www.w3.org/2000/svg" width="32" height="32" viewBox="0 0 32 32">
<title>email</title>
<path fill="none" stroke-linejoin="round" stroke-linecap="round" stroke-miterlimit="4" stroke-width="1" stroke="#000" d="M22.861 20.276c0.267-0.222 0.523-0.456 0.768-0.703M21.91 12c-0.001-1.479-0.558-2.904-1.559-3.992s-2.375-1.761-3.849-1.885c-1.474-0.124-2.941 0.309-4.11 1.215s-1.956 2.217-2.205 3.675c-0.249 1.458 0.059 2.956 0.861 4.198s2.043 2.137 3.474 2.509c1.431 0.372 2.95 0.192 4.256-0.502s2.303-1.854 2.795-3.249c0.223-0.632 0.337-1.298 0.337-1.969h-0z"></path>
<path fill="none" stroke-linejoin="round" stroke-linecap="round" stroke-miterlimit="4" stroke-width="1" stroke="#000" d="M26.75 12c0.003-1.667-0.382-3.312-1.124-4.804s-1.821-2.792-3.152-3.796c-1.331-1.004-2.877-1.685-4.516-1.988s-3.326-0.222-4.928 0.239c-1.602 0.461-3.075 1.287-4.303 2.415s-2.176 2.525-2.771 4.083c-0.594 1.557-0.819 3.232-0.655 4.89s0.711 3.257 1.599 4.668l-0.667 4.060 4.060-0.667c1.462 0.921 3.124 1.475 4.846 1.615s3.452-0.137 5.044-0.809"></path>
<path fill="none" stroke-linejoin="round" stroke-linecap="round" stroke-miterlimit="4" stroke-width="1" stroke="#000" d="M21.573 13.968c-0.722 1.761 0.454 2.709 1.465 2.939 1.233 0.28 3.712-1.009 3.712-4.907"></path>
</svg>
