<!-- Generated by IcoMoon.io -->
<svg version="1.1" xmlns="http://www.w3.org/2000/svg" width="32" height="32" viewBox="0 0 32 32">
<title>icon1</title>
<path fill="none" stroke-linejoin="miter" stroke-linecap="butt" stroke-miterlimit="4" stroke-width="2" stroke="#000" d="M10.667 9.333h10.667M10.667 9.333h-5.333c-0.707 0-1.386 0.281-1.886 0.781s-0.781 1.178-0.781 1.886v13.333c0 0.707 0.281 1.386 0.781 1.886s1.178 0.781 1.886 0.781h21.333c0.707 0 1.386-0.281 1.886-0.781s0.781-1.178 0.781-1.886v-13.333c0-0.707-0.281-1.386-0.781-1.886s-1.178-0.781-1.886-0.781h-16zM10.667 9.333v-4.533c0-0.212 0.084-0.416 0.234-0.566s0.354-0.234 0.566-0.234h9.067c0.212 0 0.416 0.084 0.566 0.234s0.234 0.354 0.234 0.566v4.533h-10.667z"></path>
</svg>
