<!-- Generated by IcoMoon.io -->
<svg version="1.1" xmlns="http://www.w3.org/2000/svg" width="32" height="32" viewBox="0 0 32 32">
<title>logo</title>
<path d="M11.368 6.494v6.649h-0.779l-3.623-5.221h-0.065v5.221h-0.805v-6.649h0.779l3.636 5.234h0.065v-5.234h0.792z"></path>
<path d="M13.785 6.494v6.649h-0.805v-6.649h0.805z"></path>
<path d="M20.75 8.571h-0.805c-0.048-0.232-0.131-0.435-0.25-0.61-0.117-0.175-0.26-0.322-0.429-0.442-0.167-0.121-0.352-0.212-0.555-0.273s-0.416-0.091-0.636-0.091c-0.403 0-0.767 0.102-1.094 0.305-0.325 0.203-0.583 0.503-0.776 0.899-0.19 0.396-0.286 0.882-0.286 1.458s0.095 1.062 0.286 1.458c0.193 0.396 0.451 0.696 0.776 0.899 0.327 0.203 0.692 0.305 1.094 0.305 0.221 0 0.433-0.030 0.636-0.091s0.389-0.15 0.555-0.27c0.169-0.121 0.312-0.27 0.429-0.445 0.119-0.178 0.202-0.381 0.25-0.61h0.805c-0.061 0.34-0.171 0.644-0.331 0.912s-0.359 0.497-0.597 0.685c-0.238 0.186-0.505 0.328-0.802 0.425-0.294 0.097-0.609 0.146-0.945 0.146-0.567 0-1.071-0.139-1.513-0.416s-0.789-0.671-1.042-1.182c-0.253-0.511-0.38-1.117-0.38-1.818s0.127-1.307 0.38-1.818c0.253-0.511 0.601-0.905 1.042-1.182s0.946-0.416 1.513-0.416c0.335 0 0.65 0.049 0.945 0.146 0.296 0.097 0.564 0.24 0.802 0.429 0.238 0.186 0.437 0.413 0.597 0.682 0.16 0.266 0.271 0.57 0.331 0.912z"></path>
<path d="M22.051 13.143v-6.649h4.013v0.714h-3.208v2.247h3v0.714h-3v2.26h3.26v0.714h-4.065z"></path>
<path d="M5.707 17.351l1.974 5.597h0.078l1.974-5.597h0.844l-2.442 6.649h-0.831l-2.442-6.649h0.844z"></path>
<path d="M12.418 17.351v6.649h-0.805v-6.649h0.805z"></path>
<path d="M14.033 24v-6.649h4.013v0.714h-3.208v2.247h3v0.714h-3v2.26h3.26v0.714h-4.065z"></path>
<path d="M20.705 24l-1.818-6.649h0.818l1.39 5.416h0.065l1.416-5.416h0.909l1.416 5.416h0.065l1.39-5.416h0.818l-1.818 6.649h-0.831l-1.468-5.299h-0.052l-1.468 5.299h-0.831z"></path>
</svg>
