<!-- Generated by IcoMoon.io -->
<svg version="1.1" xmlns="http://www.w3.org/2000/svg" width="32" height="32" viewBox="0 0 32 32">
<title>map</title>
<path fill="none" stroke-linejoin="round" stroke-linecap="round" stroke-miterlimit="4" stroke-width="1.3333" stroke="#000" d="M16 3c-2.62 0-5.133 1.041-6.986 2.894s-2.894 4.366-2.894 6.986v0 0.72c0.4 5.413 4.893 9.767 9.88 15.4 5.207-5.88 9.88-10.333 9.88-16.12 0-2.62-1.041-5.133-2.894-6.986s-4.366-2.894-6.986-2.894zM16 8.133c0.94 0 1.86 0.279 2.641 0.802s1.391 1.265 1.751 2.134c0.36 0.869 0.453 1.825 0.269 2.747s-0.637 1.769-1.303 2.434c-0.665 0.665-1.513 1.117-2.435 1.299s-1.878 0.088-2.747-0.273c-0.868-0.361-1.61-0.971-2.132-1.754s-0.799-1.702-0.798-2.643c0.002-1.26 0.503-2.467 1.395-3.357s2.099-1.39 3.359-1.39z"></path>
</svg>
