<!-- Generated by IcoMoon.io -->
<svg version="1.1" xmlns="http://www.w3.org/2000/svg" width="32" height="32" viewBox="0 0 32 32">
<title>phone</title>
<path fill="none" stroke-linejoin="round" stroke-linecap="round" stroke-miterlimit="4" stroke-width="1.3333" stroke="#000" d="M27.147 20.187c-1.412-0.174-2.814-0.421-4.2-0.74-0.339-0.113-0.7-0.137-1.051-0.069s-0.677 0.225-0.949 0.456c-0.353 0.36-1.373 1.367-2.433 2.407-3.798-1.867-6.869-4.941-8.733-8.74 1.033-1.060 2-2.073 2.393-2.427 0.231-0.272 0.388-0.599 0.456-0.949s0.044-0.712-0.069-1.051c-0.319-1.389-0.566-2.793-0.74-4.207-0.019-0.18-0.074-0.354-0.162-0.513s-0.208-0.297-0.351-0.407c-0.143-0.11-0.308-0.19-0.483-0.235s-0.358-0.053-0.537-0.025h-5.68c-0.234 0.021-0.454 0.124-0.62 0.291s-0.267 0.387-0.287 0.622c-0.367 5.127 2.493 10.613 3.073 11.667v0.040l0.080 0.153c2.076 3.601 5.066 6.591 8.667 8.667v0l0.293 0.167c1.333 0.707 6.633 3.373 11.587 3.007 0.237-0.016 0.46-0.117 0.63-0.283s0.275-0.387 0.297-0.624v-5.673c0.028-0.179 0.019-0.361-0.025-0.537s-0.125-0.34-0.235-0.483-0.249-0.263-0.407-0.351c-0.158-0.088-0.333-0.143-0.513-0.162z"></path>
</svg>
