<svg width="22" height="22" viewBox="0 0 22 22" fill="none" xmlns="http://www.w3.org/2000/svg">
<path d="M20.8298 10.693L1.22426 0.863296C1.14457 0.823452 1.05316 0.814078 0.966446 0.835171C0.767227 0.88439 0.643008 1.08595 0.692227 1.28751L2.71254 9.5422C2.74301 9.66642 2.83442 9.7672 2.95629 9.80704L6.41801 10.9953L2.95864 12.1836C2.83676 12.2258 2.74535 12.3242 2.71723 12.4484L0.692227 20.7149C0.671133 20.8016 0.680508 20.893 0.720352 20.9703C0.811758 21.1555 1.03676 21.2305 1.22426 21.1391L20.8298 11.3656C20.9024 11.3305 20.961 11.2695 20.9985 11.1992C21.0899 11.0117 21.0149 10.7867 20.8298 10.693ZM3.00317 18.3664L4.18207 13.5477L11.1008 11.1734C11.1547 11.1547 11.1993 11.1125 11.218 11.0563C11.2508 10.9578 11.1993 10.8524 11.1008 10.8172L4.18207 8.44532L3.00785 3.64533L17.7266 11.0258L3.00317 18.3664Z" fill="#7E6D53"/>
</svg>
