<!-- Generated by IcoMoon.io -->
<svg version="1.1" xmlns="http://www.w3.org/2000/svg" width="32" height="32" viewBox="0 0 32 32">
<title>youtube</title>
<path d="M29.384 5.513c-0.866-0.65-3.279-1.513-13.392-1.513-10.837 0-12.445 0.991-12.961 1.316-2.746 1.72-3.007 9.332-3.031 10.876 0.033 2.039 0.349 8.822 3.029 10.5 0.515 0.323 2.114 1.309 12.963 1.309 10.119 0 12.53-0.859 13.392-1.506 2.341-1.755 2.61-7.799 2.616-10.329-0.006-2.035-0.211-8.846-2.616-10.652l-0-0zM28.217 24.804c-0.348 0.261-2.347 1.114-12.226 1.114-9.55 0-11.554-0.773-11.933-1.011-0.964-0.603-1.981-3.803-2.061-8.721 0.079-4.907 1.11-8.49 2.063-9.085 0.38-0.239 2.391-1.018 11.931-1.018 9.871 0 11.875 0.858 12.225 1.12 0.856 0.642 1.772 4.024 1.785 8.969-0.013 5.022-0.936 7.995-1.785 8.632h0zM22.506 15.181l-8.988-5.749c-0.152-0.095-0.325-0.147-0.502-0.149s-0.351 0.044-0.505 0.134c-0.154 0.091-0.283 0.222-0.372 0.382s-0.136 0.341-0.137 0.525v11.5c0 0.276 0.105 0.541 0.293 0.736s0.441 0.305 0.706 0.305c0.182 0 0.36-0.052 0.516-0.149l8.989-5.751c0.3-0.189 0.483-0.527 0.483-0.892s-0.183-0.704-0.482-0.892h-0zM14.001 19.979v-7.812l6.056 3.906-6.056 3.907z"></path>
</svg>
